<?xml version="1.0" encoding="UTF-8" standalone="no"?>
<!-- Created with Inkscape (http://www.inkscape.org/) -->

<svg
   xmlns:dc="http://purl.org/dc/elements/1.1/"
   xmlns:cc="http://creativecommons.org/ns#"
   xmlns:rdf="http://www.w3.org/1999/02/22-rdf-syntax-ns#"
   xmlns:svg="http://www.w3.org/2000/svg"
   xmlns="http://www.w3.org/2000/svg"
   xmlns:sodipodi="http://sodipodi.sourceforge.net/DTD/sodipodi-0.dtd"
   xmlns:inkscape="http://www.inkscape.org/namespaces/inkscape"
   width="50"
   height="44.109627"
   viewBox="0 0 50.000001 44.109628"
   id="svg45412"
   version="1.1"
   inkscape:version="0.91 r13725"
   sodipodi:docname="hcLogoAuth0.svg">
  <defs
     id="defs45414" />
  <sodipodi:namedview
     id="base"
     pagecolor="#ffffff"
     bordercolor="#666666"
     borderopacity="1.0"
     inkscape:pageopacity="0.0"
     inkscape:pageshadow="2"
     inkscape:zoom="2.8"
     inkscape:cx="65.782254"
     inkscape:cy="58.322802"
     inkscape:document-units="px"
     inkscape:current-layer="layer1"
     showgrid="false"
     units="px"
     fit-margin-top="0"
     fit-margin-left="0"
     fit-margin-right="0"
     fit-margin-bottom="0"
     inkscape:window-width="1600"
     inkscape:window-height="878"
     inkscape:window-x="-8"
     inkscape:window-y="-8"
     inkscape:window-maximized="1" />
  <metadata
     id="metadata45417">
    <rdf:RDF>
      <cc:Work
         rdf:about="">
        <dc:format>image/svg+xml</dc:format>
        <dc:type
           rdf:resource="http://purl.org/dc/dcmitype/StillImage" />
        <dc:title></dc:title>
      </cc:Work>
    </rdf:RDF>
  </metadata>
  <g
     inkscape:label="Layer 1"
     inkscape:groupmode="layer"
     id="layer1"
     transform="translate(10.071808,-1008.3022)">
    <rect
       style="opacity:1;fill:#433f8f;fill-opacity:1;stroke:none;stroke-width:1;stroke-linecap:round;stroke-linejoin:round;stroke-miterlimit:4;stroke-dasharray:none;stroke-opacity:1"
       id="rect22514"
       width="50"
       height="44.109627"
       x="-10.071808"
       y="1008.3022"
       ry="6.2803307" />
    <g
       transform="matrix(0.2952457,0,0,0.2924995,-7.1120119,743.14024)"
       style="font-style:normal;font-variant:normal;font-weight:normal;font-stretch:normal;font-size:144.78582764px;line-height:125%;font-family:Forte;-inkscape-font-specification:'Forte, Normal';text-align:start;letter-spacing:-7.56505871px;word-spacing:0px;writing-mode:lr-tb;text-anchor:start;fill:#ffffff;fill-opacity:1;stroke:none;stroke-width:1px;stroke-linecap:butt;stroke-linejoin:miter;stroke-opacity:1"
       id="text22506">
      <path
         inkscape:connector-curvature="0"
         d="m 64.611802,943.90494 0,-1.13113 q 0,-2.61576 -0.706962,-2.61576 -0.91905,0 -2.898544,2.82784 -1.908798,2.82785 -3.464114,6.29197 -3.888291,8.83702 -6.857532,18.73449 -2.969241,9.82677 -4.595253,19.65355 -0.56557,3.81759 -1.201836,8.27145 l 0.353481,0.28279 q 7.069621,-7.28171 10.533735,-10.32165 3.464114,-3.03994 8.978418,-6.92823 6.928228,-4.80734 11.452785,-4.80734 2.898544,0 4.453861,2.12089 1.626013,2.05019 1.626013,5.72639 0,2.12088 -0.848355,6.07987 -1.48462,8.34215 -1.48462,14.06853 0,2.6158 0.424177,5.5143 0.353481,2.2623 2.332975,9.1198 1.626012,5.2316 1.626012,5.7971 0,0.9898 -2.332974,2.4037 -7.493798,4.9487 -13.78576,4.9487 -5.160823,0 -8.412849,-5.0194 -3.181329,-5.0194 -3.181329,-13.0788 0,-3.1813 0.636266,-7.7059 l -0.353481,-0.2828 q -10.038861,10.3217 -13.432279,13.9272 -12.583924,12.1597 -19.37076,12.1597 -3.110633,0 -5.160823,-4.1004 -1.979494,-4.171 -1.979494,-10.8165 0,-14.2806 8.837026,-36.47922 3.53481,-8.62493 7.493798,-16.47221 3.958987,-7.91798 7.564493,-13.64437 2.61576,-4.02968 5.443608,-6.99892 2.898545,-3.03994 5.797089,-5.01943 2.969241,-2.05019 6.009177,-3.03994 3.039937,-0.98975 6.079874,-0.98975 7.564494,0 12.30114,4.66595 4.807342,4.66595 4.807342,11.94766 0,5.09013 -2.898545,10.81652 -2.898544,5.72639 -8.130063,10.88722 -3.322722,3.25202 -7.564494,5.79708 -4.171076,2.47437 -6.504051,2.47437 -0.706962,0 -1.272532,-0.49487 -0.565569,-0.49487 -0.565569,-1.27253 0,-1.06045 1.838101,-4.59526 2.120886,-3.88829 4.171076,-9.47329 2.05019,-5.65569 3.110633,-10.67512 1.131139,-5.09013 1.131139,-8.55425 z"
         id="path49903" />
      <path
         inkscape:connector-curvature="0"
         d="m 120.60263,961.86178 q 5.37292,0.21209 8.55425,3.11063 3.18132,2.89855 3.18132,7.77659 0,4.24177 -2.47436,8.55424 -2.40367,4.31247 -6.15057,7.06962 -3.6762,2.75715 -7.4231,2.75715 -2.19159,0 -2.19159,-1.55532 0,-0.56557 0.84836,-2.47436 2.75715,-4.66595 2.75715,-10.74583 0,-3.03993 -0.70696,-3.03993 -0.98975,0 -2.82785,2.54506 -1.8381,2.54506 -3.11063,6.00918 -2.19159,5.4436 -3.67621,11.59417 -1.41392,6.15057 -1.41392,10.39232 0,4.8074 1.41392,7.5645 1.48462,2.7572 4.10038,2.7572 2.40368,0 6.43336,-2.5451 4.02968,-2.5451 7.63519,-6.292 1.48462,-1.9088 2.61576,-1.9088 1.69671,0 1.69671,1.9088 0,8.6957 -6.78684,15.7653 -4.66595,4.6659 -10.74582,7.5645 -6.00918,2.8278 -10.81652,2.8278 -8.412849,0 -13.997849,-5.3022 -5.585,-5.3022 -5.585,-13.3616 0,-8.0593 3.53481,-16.89635 3.605506,-8.90772 9.756076,-16.89639 6.221263,-7.98867 14.068543,-13.36158 5.6557,-3.8176 11.02861,-3.8176 l 0.28278,0 z"
         id="path49905" />
    </g>
  </g>
</svg>
