<svg xmlns="http://www.w3.org/2000/svg" width="50" height="44.11"><g transform="translate(10.072 -1008.302)"><rect width="50" height="44.11" x="-10.072" y="1008.302" ry="6.28" fill="#433f8f"/><g style="line-height:125%;-inkscape-font-specification:'Forte, Normal';text-align:start" font-weight="400" font-size="144.786" font-family="Forte" letter-spacing="-7.565" word-spacing="0" fill="#fff"><path d="M11.964 1019.232v-.33q0-.766-.208-.766-.272 0-.856.827-.564.827-1.023 1.84-1.148 2.585-2.025 5.48-.876 2.875-1.356 5.749-.167 1.117-.355 2.42l.104.082q2.087-2.13 3.11-3.019 1.023-.89 2.651-2.026 2.046-1.407 3.381-1.407.856 0 1.315.62.48.6.48 1.676 0 .62-.25 1.778-.438 2.44-.438 4.115 0 .765.125 1.613.104.662.689 2.668.48 1.53.48 1.695 0 .29-.689.703-2.212 1.448-4.07 1.448-1.524 0-2.484-1.468-.94-1.469-.94-3.826 0-.93.189-2.254l-.105-.083q-2.964 3.02-3.966 4.074-3.715 3.557-5.719 3.557-.918 0-1.523-1.2-.585-1.22-.585-3.163 0-4.177 2.61-10.67 1.043-2.523 2.212-4.819 1.169-2.316 2.233-3.99.772-1.18 1.607-2.048.856-.889 1.712-1.468.877-.6 1.774-.89.898-.289 1.795-.289 2.233 0 3.632 1.365 1.42 1.365 1.42 3.495 0 1.489-.856 3.164t-2.4 3.184q-.982.951-2.234 1.696-1.232.724-1.92.724-.21 0-.376-.145-.167-.145-.167-.372 0-.31.542-1.345.627-1.137 1.232-2.77.605-1.655.918-3.123.334-1.489.334-2.502z"/><path d="M28.495 1024.484q1.587.062 2.526.91.94.848.94 2.275 0 1.24-.731 2.502-.71 1.261-1.816 2.068-1.086.806-2.192.806-.647 0-.647-.455 0-.165.25-.723.815-1.365.815-3.144 0-.889-.21-.889-.291 0-.834.745-.543.744-.918 1.757-.647 1.593-1.086 3.392-.417 1.799-.417 3.04 0 1.406.417 2.212.439.807 1.21.807.71 0 1.9-.745 1.19-.744 2.254-1.84.439-.559.773-.559.5 0 .5.559 0 2.543-2.003 4.611-1.378 1.365-3.173 2.213-1.774.827-3.193.827-2.484 0-4.133-1.551t-1.649-3.908q0-2.358 1.044-4.943 1.064-2.605 2.88-4.942 1.837-2.336 4.154-3.908 1.67-1.117 3.256-1.117h.083z"/></g></g></svg>