<svg xmlns="http://www.w3.org/2000/svg" width="25" height="25"><path d="M.504 0h23.992c.28 0 .504.225.504.504v23.992c0 .28-.225.504-.504.504H.504A.503.503 0 010 24.496V.504C0 .224.225 0 .504 0z" fill="none"/><path d="M22.07 1.367H2.93c-.863 0-1.563.7-1.563 1.563v19.14c0 .863.7 1.563 1.563 1.563h19.14c.863 0 1.563-.7 1.563-1.563V2.93c0-.863-.7-1.563-1.563-1.563z" fill="#766df4"/><path d="M10.287 16.307h3.299c.567 0 1.01-.147 1.32-.442.313-.293.471-.71.471-1.248 0-.529-.155-.932-.471-1.218-.317-.287-.753-.424-1.32-.424h-3.3zm0-4.673h3.045c.448 0 .821-.125 1.12-.382.298-.257.448-.621.448-1.099 0-.537-.135-.916-.404-1.134-.268-.218-.656-.329-1.164-.329h-3.045zM8.42 7.171h5.18c.955 0 1.722.218 2.299.657.576.438.866 1.098.866 1.985 0 .537-.132.997-.394 1.38-.263.381-.64.68-1.13.89v.029c.658.14 1.156.45 1.494.931.337.484.507 1.087.507 1.816 0 .417-.074.809-.224 1.17a2.36 2.36 0 01-.701.94c-.32.263-.726.472-1.224.627-.499.156-1.09.233-1.777.233H8.421V7.171" fill="#fff"/></svg>