<svg xmlns="http://www.w3.org/2000/svg" width="25" height="25"><path d="M.504 0h23.992c.28 0 .504.225.504.504v23.992c0 .28-.225.504-.504.504H.504A.503.503 0 010 24.496V.504C0 .224.225 0 .504 0z" fill="none"/><path d="M22.07 1.367H2.93c-.863 0-1.563.7-1.563 1.563v19.14c0 .863.7 1.563 1.563 1.563h19.14c.863 0 1.563-.7 1.563-1.563V2.93c0-.863-.7-1.563-1.563-1.563zm-4.459 17.178l-5.119 1.419-5.104-1.417L6.25 5.788h12.5l-1.139 12.757z" fill="#766df4"/><path fill="#766df4" d="M14.248 15.143l-1.738.485v-.001l-.012.001-1.745-.469-.114-1.246H9.068l.22 2.456 3.21.889.012-.003 3.2-.888.422-4.829H12.51l3.764-1.673.135-1.563H8.575l.14 1.563h4.048l-.253.108-3.656 1.565.137 1.563h5.43z"/></svg>