<svg xmlns="http://www.w3.org/2000/svg" width="25" height="25"><path d="M22.07 1.367H2.93c-.863 0-1.563.7-1.563 1.563v19.14c0 .863.7 1.563 1.563 1.563h19.14c.863 0 1.563-.7 1.563-1.563V2.93c0-.863-.7-1.563-1.563-1.563zm-4.457 17.188l-5.131 1.438-5.096-1.438L6.25 5.788h12.5l-1.137 12.767z" fill="#766df4"/><path d="M.504 0h23.992c.28 0 .504.225.504.504v23.992c0 .28-.225.504-.504.504H.504A.503.503 0 010 24.496V.504C0 .224.225 0 .504 0z" fill="none"/><path fill="#766df4" d="M10.298 9.952h5.984l.142-1.554H8.576l.417 4.741h5.433l-.195 2.024-1.75.471-1.74-.471-.114-1.243H9.073l.196 2.469 3.213.887h.035v-.01l3.188-.877.443-4.83h-5.717z"/></svg>