<svg xmlns="http://www.w3.org/2000/svg" width="25" height="25"><path d="M23.085 22.07c0 .863-.684 1.563-1.527 1.563H2.862c-.843 0-1.527-.7-1.527-1.563V2.93c0-.863.684-1.563 1.527-1.563h18.696c.843 0 1.527.7 1.527 1.563v19.14z" fill="#766df4"/><g fill="#fff"><path d="M9.183 14.847l-.052.16a1.073 1.073 0 01-.26.505c-.156.16-.407.24-.753.24-.26 0-.477-.062-.65-.187-.174-.123-.355-.345-.546-.665-.07-.124-.108-.186-.117-.186-.009 0-.282.169-.818.506l-.806.505.078.106c.364.78.944 1.304 1.741 1.57.884.301 1.741.283 2.573-.053.918-.39 1.446-1.162 1.585-2.315.017-.124.026-1.41.026-3.857v-3.67H9.183V14.846zM13.6 8.223c-.485.497-.727 1.127-.727 1.889 0 1.117.502 1.986 1.507 2.607.242.16.658.364 1.247.612.728.319 1.178.576 1.351.771.295.32.355.665.182 1.038-.052.089-.113.169-.182.24-.26.265-.623.398-1.091.398-.78 0-1.403-.355-1.871-1.064-.07-.124-.108-.186-.117-.186-.009 0-.273.155-.793.465-.52.311-.788.475-.805.493-.017.017.008.08.078.186.606 1.064 1.567 1.684 2.884 1.862.433.07.866.07 1.3 0 .813-.106 1.455-.39 1.922-.851.502-.497.754-1.153.754-1.969 0-.496-.096-.94-.286-1.33a2.219 2.219 0 00-.468-.692c-.398-.407-1.1-.833-2.104-1.277-.71-.3-1.144-.54-1.3-.718a.912.912 0 01-.233-.691.905.905 0 01.207-.532c.19-.195.45-.293.78-.293.364 0 .658.124.884.373.12.106.211.212.272.319.06.106.1.16.117.16.035-.018.3-.191.793-.52.494-.327.74-.496.74-.505 0-.009-.052-.102-.156-.28a3.004 3.004 0 00-.805-.824c-.416-.301-.927-.47-1.533-.505a4.053 4.053 0 00-.65 0c-.78.053-1.412.328-1.897.824z"/></g><rect ry=".504" height="25" width="24.42" fill="none"/></svg>