<svg xmlns="http://www.w3.org/2000/svg" width="25" height="25"><path d="M.504 0h23.992c.28 0 .504.225.504.504v23.992c0 .28-.225.504-.504.504H.504A.503.503 0 010 24.496V.504C0 .224.225 0 .504 0z" fill="none"/><path d="M8.387 17.583c-.736.778-.942 1.755-.531 1.993.38.22 1.267-.041 1.902-.734a3.055 3.055 0 00.576-.895c.021-.054.041-.109.06-.164.164-.497.181-1.045.022-1.633a16.9 16.9 0 01-.1.054l.002.003s-1.14.539-1.931 1.376z" fill="#766df4"/><path d="M22.07 1.367H2.93c-.863 0-1.563.7-1.563 1.563v19.14c0 .863.7 1.563 1.563 1.563h19.14c.863 0 1.563-.7 1.563-1.563V2.93c0-.863-.7-1.563-1.563-1.563zm-5.919 9.904c-1.894.733-3.46.616-4.104.405-.731-.24-1.16-.722-1.265-.994-.041-.107-.112-.286 0-.348.069-.038.096-.029.28.174.175.192.877.71 2.211.56 3.502-.393 5.611-3.114 4.945-4.578-.466-1.024-3.166-1.487-6.538.194-4.116 2.05-4.34 3.742-4.375 4.384-.096 1.766 2.18 2.696 3.412 4.01.03.03.057.062.085.093.372-.138.888-.216 1.709-.23 1.992-.035 3.117 1.279 3.07 2.453-.036.924-.884 1.305-1.042 1.332-.115.02-.177.023-.194-.067-.01-.062.03-.091.165-.174.134-.083.536-.359.608-.86.072-.5-.304-1.698-2.221-1.922-.68-.079-1.214-.025-1.673.096.333.733.396 2.206-.368 3.347-.793 1.183-2.268 1.902-3.705 1.502-.464-.129-1.165-1.088-.56-2.424.572-1.267 3.02-2.505 3.355-2.67v-.006c-1.134-.976-3.893-2.293-4.282-4.306-.11-.571.157-1.937 1.834-3.506 1.411-1.32 3.374-2.33 5.186-2.974 3.046-1.082 6.265-.444 6.76 1.496.486 1.909-1.171 4.192-3.293 5.013z" fill="#766df4"/></svg>