<?xml version="1.0" encoding="UTF-8" standalone="no"?>
<!-- Generator: Adobe Illustrator 16.0.0, SVG Export Plug-In . SVG Version: 6.00 Build 0)  -->

<svg
   xmlns:dc="http://purl.org/dc/elements/1.1/"
   xmlns:cc="http://creativecommons.org/ns#"
   xmlns:rdf="http://www.w3.org/1999/02/22-rdf-syntax-ns#"
   xmlns:svg="http://www.w3.org/2000/svg"
   xmlns="http://www.w3.org/2000/svg"
   xmlns:sodipodi="http://sodipodi.sourceforge.net/DTD/sodipodi-0.dtd"
   xmlns:inkscape="http://www.inkscape.org/namespaces/inkscape"
   version="1.1"
   id="Layer_1"
   x="0px"
   y="0px"
   width="25"
   height="25"
   viewBox="0 0 25 25"
   xml:space="preserve"
   inkscape:version="0.91 r13725"
   sodipodi:docname="sassSealLogo.svg"><metadata
     id="metadata9"><rdf:RDF><cc:Work
         rdf:about=""><dc:format>image/svg+xml</dc:format><dc:type
           rdf:resource="http://purl.org/dc/dcmitype/StillImage" /><dc:title></dc:title></cc:Work></rdf:RDF></metadata><defs
     id="defs7" /><sodipodi:namedview
     pagecolor="#ffffff"
     bordercolor="#666666"
     borderopacity="1"
     objecttolerance="10"
     gridtolerance="10"
     guidetolerance="10"
     inkscape:pageopacity="0"
     inkscape:pageshadow="2"
     inkscape:window-width="1600"
     inkscape:window-height="878"
     id="namedview5"
     showgrid="false"
     inkscape:zoom="14.75"
     inkscape:cx="0.56867395"
     inkscape:cy="8.4425409"
     inkscape:window-x="-8"
     inkscape:window-y="-8"
     inkscape:window-maximized="1"
     inkscape:current-layer="layer1"
     inkscape:showpageshadow="false" /><g
     inkscape:groupmode="layer"
     id="layer3"
     inkscape:label="page"
     style="display:inline" /><g
     inkscape:groupmode="layer"
     id="layer2"
     inkscape:label="background"
     style="display:inline" /><g
     inkscape:groupmode="layer"
     id="layer1"
     inkscape:label="icon"
     style="display:inline"><path
       style="display:inline;opacity:1;fill:none;fill-opacity:1;stroke:none;stroke-width:1;stroke-linecap:round;stroke-linejoin:round;stroke-miterlimit:4;stroke-dasharray:none;stroke-opacity:1"
       d="m 0.50397462,2.5e-7 23.99205038,0 C 24.775227,2.5e-7 25,0.22477293 25,0.50397487 L 25,24.496026 C 25,24.775228 24.775227,25 24.496025,25 L 0.50397462,25 C 0.22477268,25 0,24.775228 0,24.496026 L 0,0.50397487 C 0,0.22477293 0.22477268,2.5e-7 0.50397462,2.5e-7 Z"
       id="rect15980"
       inkscape:connector-curvature="0" /><path
       id="path36956"
       d="m 8.3867473,17.583093 c -0.7361451,0.778138 -0.9419103,1.754815 -0.5311612,1.992905 0.3804751,0.220707 1.2675017,-0.04121 1.9024733,-0.733997 0.208109,-0.227055 0.3781316,-0.473055 0.5047936,-0.735755 0.02529,-0.05254 0.04893,-0.105861 0.0707,-0.15967 0.02178,-0.05401 0.0419,-0.108498 0.06016,-0.163675 0.16426,-0.496785 0.181643,-1.045135 0.02266,-1.633328 -0.03379,0.01855 -0.06719,0.03682 -0.0999,0.05449 l 0.0018,0.0034 c 9.8e-5,9.8e-5 -1.1394722,0.538388 -1.9314777,1.375609 z"
       inkscape:connector-curvature="0"
       style="fill:#766df4;fill-opacity:1" /><path
       id="path36958"
       d="m 22.070473,1.3670005 -19.1409462,0 c -0.8630028,0 -1.5625263,0.6996212 -1.5625263,1.5625263 l 0,19.1409462 c 0,0.863003 0.6995235,1.562526 1.5625263,1.562526 l 19.1409462,0 c 0.862905,0 1.562526,-0.699523 1.562526,-1.562526 l 0,-19.1409462 c 0,-0.8629051 -0.699621,-1.5625263 -1.562526,-1.5625263 z M 16.151429,11.27078 c -1.894466,0.732727 -3.460996,0.61671 -4.104464,0.405573 -0.731458,-0.240043 -1.160566,-0.72257 -1.26506,-0.994645 -0.04102,-0.10674 -0.111916,-0.285747 0,-0.347662 0.06865,-0.03809 0.0961,-0.02891 0.280083,0.173831 0.174807,0.192581 0.87726,0.70968 2.211462,0.560068 3.501915,-0.392487 5.611032,-3.1135291 4.944712,-4.5775186 C 17.751651,5.4656045 15.052094,5.0032921 11.680064,6.6835937 7.563589,8.7347024 7.340343,10.425746 7.3052839,11.067945 c -0.096584,1.766436 2.1802124,2.695943 3.4117761,4.00993 0.029,0.03086 0.05703,0.06221 0.08457,0.09356 0.372564,-0.138675 0.888491,-0.216801 1.709013,-0.230864 1.992025,-0.03438 3.11724,1.279026 3.07095,2.452971 -0.03623,0.924723 -0.885074,1.305589 -1.042987,1.332249 -0.11465,0.01943 -0.176858,0.02275 -0.193167,-0.06719 -0.01133,-0.06182 0.02969,-0.09063 0.164163,-0.173734 0.134475,-0.08311 0.536533,-0.3586 0.608409,-0.859682 0.07188,-0.50079 -0.304205,-1.697783 -2.221229,-1.921712 -0.679406,-0.0793 -1.213985,-0.0252 -1.672489,0.0957 0.332427,0.732923 0.3961,2.206288 -0.368756,3.347127 -0.792592,1.182246 -2.2675188,1.901594 -3.7048476,1.501685 -0.463875,-0.129006 -1.1645703,-1.087909 -0.560068,-2.423966 0.5728612,-1.266525 3.0207539,-2.505316 3.3552321,-2.669967 l 0,-0.006 C 8.8116568,14.571519 6.0525284,13.255286 5.6635571,11.241678 5.5533013,10.670965 5.8207863,9.3052198 7.4984512,7.7360528 8.9094124,6.4163041 10.87175,5.4056426 12.684378,4.7615888 c 3.045852,-1.0820494 6.264168,-0.4440504 6.759,1.4969001 0.486532,1.9084305 -1.170332,4.1914771 -3.291949,5.0122911 z"
       inkscape:connector-curvature="0"
       style="fill:#766df4;fill-opacity:1" /></g></svg>